<svg width="32" height="32" viewBox="0 0 32 32" xmlns="http://www.w3.org/2000/svg">
<path d="M5 5V7H7V5H5ZM9 5V15H23V5H9ZM25 5V7H27V5H25ZM11 7H21V13H11V7ZM5 9V11H7V9H5ZM25 9V11H27V9H25ZM5 13V15H7V13H5ZM25 13V15H27V13H25ZM5 18V20H9V28H23V20H27V18H5ZM11 20H12.8438C13.4023 21.1875 14.6016 22 16 22C17.3984 22 18.5977 21.1875 19.1562 20H21V24.1875C20.1562 24.4883 19.4883 25.1562 19.1875 26H12.8125C12.5117 25.1562 11.8438 24.4883 11 24.1875V20ZM16 23C15.1719 23 14.5 23.4492 14.5 24C14.5 24.5508 15.1719 25 16 25C16.8281 25 17.5 24.5508 17.5 24C17.5 23.4492 16.8281 23 16 23Z"/>
</svg>
