<svg width="24" height="24" viewBox="0 0 24 24" xmlns="http://www.w3.org/2000/svg">
<path d="M16.9691 2.27334C16.7289 2.29678 16.4828 2.36124 16.2425 2.46084V2.43741C16.2308 2.44034 16.2074 2.45792 16.1957 2.46084C14.3705 3.10245 10.8754 4.71085 7.7113 7.87491C4.5238 11.0624 2.98571 14.622 2.29724 16.3827V16.4062C1.99255 17.3173 2.20935 18.3046 2.81286 19.0077L2.8363 19.0312V19.0546L5.0863 21.2812L5.18005 21.3749C5.80114 21.996 6.87927 21.996 7.50036 21.3749L10.5707 18.3046C11.1918 17.6835 11.1918 16.5819 10.5707 15.9608L9.09411 14.4843C9.35192 13.9482 10.0199 12.6298 11.2035 11.3905C12.3783 10.1601 13.7259 9.53311 14.2504 9.3046L15.7972 10.8515L15.8675 10.8983C16.2191 11.1327 16.6205 11.2646 17.0394 11.2499C17.432 11.2353 17.8392 11.0419 18.141 10.7108L18.1644 10.7343L18.2113 10.664L21.2347 7.66397C21.8558 7.04288 21.8558 5.94131 21.2347 5.32022L18.9144 2.99991C18.5863 2.67178 18.1439 2.42569 17.6722 2.32022C17.4437 2.27042 17.2093 2.24991 16.9691 2.27334ZM17.0863 3.77335C17.3705 3.75284 17.6547 3.87295 17.8363 4.0546L20.18 6.37491C20.309 6.50381 20.309 6.45694 20.18 6.58585L17.0394 9.72647C17.0424 9.72354 17.0394 9.74698 16.9691 9.74991C16.9105 9.75284 16.8226 9.70303 16.7347 9.65616H16.6879L14.93 7.87491L14.5785 7.52335L14.1332 7.68741C14.1332 7.68741 11.8275 8.54874 10.1019 10.3593C8.40563 12.1347 7.47692 14.3202 7.47692 14.3202L7.28942 14.789L7.64099 15.164L9.51599 17.039C9.64489 17.1679 9.64489 17.121 9.51599 17.2499L6.44567 20.3202C6.31677 20.4491 6.36364 20.4491 6.23474 20.3202L3.93786 18.0468C3.932 18.0409 3.94372 18.0292 3.93786 18.0233L3.91442 17.9999C3.65368 17.6747 3.57458 17.329 3.70349 16.9218C3.70642 16.913 3.70056 16.9071 3.70349 16.8983C4.36853 15.205 5.83337 11.8857 8.78942 8.9296C11.7572 5.96182 15.1234 4.43545 16.7582 3.8671L16.7816 3.84366H16.805C16.8959 3.80264 16.9925 3.7792 17.0863 3.77335Z"/>
</svg>
