<svg width="32" height="32" viewBox="0 0 32 32" xmlns="http://www.w3.org/2000/svg">
<path d="M2 10V22H11.7812L20.9062 31.0938C22.0586 32.2461 23.9414 32.2461 25.0938 31.0938C26.2461 29.9414 26.2461 28.0586 25.0938 26.9062L20.1875 22H30V10H2ZM4 12H28V20H18.2188L15 16.7812L14.6875 16.7188L11.1875 16.0312L9.71875 15.7188L10.0312 17.1875L10.5938 20H4V12ZM12.2812 18.2812L14 18.625L23.6875 28.3125C24.1328 28.7578 24.1328 29.2422 23.6875 29.6875C23.2422 30.1328 22.7578 30.1328 22.3125 29.6875L12.625 20L12.2812 18.2812Z"/>
</svg>
