<svg width="32" height="32" viewBox="0 0 32 32"  xmlns="http://www.w3.org/2000/svg">
<path d="M15.9992 7C9.61634 7 4.03041 9.0625 4.03041 9.0625L3.43666 9.28125L3.37416 9.875L2.03041 20.125C1.66713 22.9609 3.69447 25.6055 6.53041 25.9688C9.17103 26.3086 11.5382 24.5273 12.1554 22H19.8429C20.464 24.5273 22.8273 26.3086 25.4679 25.9688C28.3038 25.6055 30.3312 22.9609 29.9679 20.125L28.6242 9.875L28.5617 9.28125L27.9679 9.0625C27.9679 9.0625 22.382 7 15.9992 7ZM15.9992 9C21.4835 9 26.007 10.5234 26.7492 10.7812L27.9679 20.4062C28.1945 22.168 26.9796 23.7422 25.2179 23.9688C23.4562 24.1953 21.8507 22.9805 21.6242 21.2188L21.5929 20.875L21.4679 20H10.5304L10.4054 20.875L10.3742 21.2188C10.1476 22.9805 8.54212 24.1953 6.78041 23.9688C5.01869 23.7422 3.80384 22.168 4.03041 20.4062L5.24916 10.7812C5.99134 10.5234 10.5148 9 15.9992 9ZM8.99916 12V14H6.99916V16H8.99916V18H10.9992V16H12.9992V14H10.9992V12H8.99916ZM21.9992 12C21.4484 12 20.9992 12.4492 20.9992 13C20.9992 13.5508 21.4484 14 21.9992 14C22.5499 14 22.9992 13.5508 22.9992 13C22.9992 12.4492 22.5499 12 21.9992 12ZM19.9992 14C19.4484 14 18.9992 14.4492 18.9992 15C18.9992 15.5508 19.4484 16 19.9992 16C20.5499 16 20.9992 15.5508 20.9992 15C20.9992 14.4492 20.5499 14 19.9992 14ZM23.9992 14C23.4484 14 22.9992 14.4492 22.9992 15C22.9992 15.5508 23.4484 16 23.9992 16C24.5499 16 24.9992 15.5508 24.9992 15C24.9992 14.4492 24.5499 14 23.9992 14ZM21.9992 16C21.4484 16 20.9992 16.4492 20.9992 17C20.9992 17.5508 21.4484 18 21.9992 18C22.5499 18 22.9992 17.5508 22.9992 17C22.9992 16.4492 22.5499 16 21.9992 16Z"/>
</svg>
