<svg width="32" height="32" viewBox="0 0 32 32"  xmlns="http://www.w3.org/2000/svg">
<path d="M16 4C9.38281 4 4 9.38281 4 16C4 22.6172 9.38281 28 16 28C16.9375 28 17.8438 27.8828 18.7188 27.6758L17.4375 24.4805C16.9531 25.4531 16.4375 26 16 26C15.9258 26 15.8477 25.9727 15.7695 25.9414C15.7422 25.9297 15.7148 25.9219 15.6836 25.9062C15.6562 25.8945 15.6328 25.8711 15.6094 25.8594C15.4883 25.7773 15.3555 25.6641 15.2031 25.4844C15.1094 25.3789 15.0195 25.2539 14.9258 25.1133C14.8477 24.9961 14.7695 24.8633 14.6914 24.7227C14.668 24.6797 14.6445 24.6328 14.6211 24.5898C14.4687 24.2969 14.3203 23.957 14.1797 23.5898C14.125 23.4492 14.0742 23.2969 14.0234 23.1406C13.9219 22.8398 13.8242 22.5195 13.7344 22.1758C13.7188 22.1172 13.7031 22.0625 13.6875 22H16.4453L15.6445 20H13.2891C13.2148 19.5039 13.1602 18.9844 13.1133 18.4531C13.0938 18.1992 13.0781 17.9414 13.0625 17.6836C13.0312 17.1289 13 16.5781 13 16C13 15.4648 13.0312 14.9531 13.0586 14.4375C13.0781 14.0977 13.0977 13.7617 13.125 13.4375C13.1562 13.1133 13.1953 12.7969 13.2344 12.4844C13.2578 12.3203 13.2813 12.1602 13.3047 12H18.6953C18.8359 12.9258 18.9453 13.9102 18.9805 15H14L14.0078 15.0156L15.5898 15.4883L20.9766 17.1055C20.9766 17.0703 20.9805 17.0352 20.9844 17H25.9492C25.8984 17.5195 25.8047 18.0234 25.6758 18.5156L27.582 19.0898C27.8477 18.1016 28 17.0703 28 16C28 9.38281 22.6172 4 16 4ZM16 6C16.7266 6 17.6758 7.49219 18.3086 10H13.6914C13.7031 9.96094 13.707 9.91406 13.7188 9.875C13.7773 9.64844 13.8477 9.44531 13.9102 9.23047C13.9922 8.97266 14.0664 8.70313 14.1523 8.47656C14.3242 8.00781 14.5156 7.59375 14.707 7.25C14.7969 7.09375 14.8828 6.95312 14.9688 6.82812C15.0469 6.71484 15.125 6.60547 15.2031 6.51562C15.3711 6.31641 15.5195 6.19141 15.6445 6.11719C15.6641 6.10547 15.6836 6.09375 15.7031 6.08594C15.7461 6.0625 15.7852 6.04688 15.8203 6.03125C15.8828 6.01562 15.9414 6 16 6ZM12.8242 6.52734C12.6992 6.76563 12.5859 7.01562 12.4727 7.27344C12.4375 7.35937 12.4023 7.44922 12.3711 7.53906C12.3242 7.65234 12.2773 7.76172 12.2344 7.88281C12.2148 7.92969 12.2031 7.98438 12.1875 8.03125C12.0273 8.48047 11.8867 8.95703 11.7617 9.45312C11.7227 9.60156 11.6875 9.75 11.6562 9.90234C11.6484 9.93359 11.6367 9.96875 11.6289 10H8.01562C9.22266 8.40625 10.8906 7.17969 12.8242 6.52734ZM19.1797 6.52734C21.1133 7.17969 22.7812 8.40625 23.9844 10H20.3711C20.0742 8.68359 19.6797 7.49219 19.1797 6.52734ZM6.84375 12H11.2734C11.2305 12.3242 11.1992 12.6563 11.1641 12.9883C11.1133 13.4844 11.0781 13.9844 11.0508 14.5039C11.043 14.6719 11.0234 14.832 11.0156 15H6.05078C6.15625 13.9414 6.43359 12.9336 6.84375 12ZM20.7266 12H25.1562C25.5664 12.9336 25.8437 13.9414 25.9492 15H20.9844C20.9492 13.9805 20.8594 12.9727 20.7266 12ZM6.05078 17H11.0156C11.0273 17.2773 11.0508 17.5508 11.0664 17.8281C11.0781 18.043 11.0859 18.2617 11.1055 18.4727C11.1445 18.9883 11.1992 19.5 11.2695 20H6.84375C6.43359 19.0664 6.15625 18.0586 6.05078 17ZM17 18L21 28L22.8789 25.3125L26 28L28 25.7539L24.707 23.0195L27 21L17 18ZM8.01953 22H11.625C11.6406 22.0625 11.6562 22.1211 11.6719 22.1836C11.7031 22.3242 11.7383 22.457 11.7734 22.5938C11.8984 23.0859 12.043 23.5625 12.1992 24.0039C12.2109 24.043 12.2188 24.0859 12.2344 24.1211C12.2852 24.2656 12.3437 24.4023 12.4023 24.543C12.4297 24.6133 12.4609 24.6914 12.4883 24.7617C12.5859 24.9844 12.6836 25.1953 12.7852 25.3984C12.7969 25.4219 12.8086 25.4492 12.8203 25.4727C10.8867 24.8242 9.22266 23.5977 8.01953 22Z"/>
</svg>
