<svg width="28" height="28" viewBox="0 0 28 28" xmlns="http://www.w3.org/2000/svg">
<path d="M23 0L19 4L23 8V5H25C25.5664 5 26 5.43359 26 6V10H28V6C28 4.35547 26.6445 3 25 3H23V0ZM3 3C1.35547 3 0 4.35547 0 6V13C0 14.6445 1.35547 16 3 16H11V22C11 23.6445 12.3555 25 14 25H25C26.6445 25 28 23.6445 28 22V15C28 13.3555 26.6445 12 25 12H17V6C17 4.35547 15.6445 3 14 3H3ZM3 5H14C14.5664 5 15 5.43359 15 6V7H3V9H15V12H14C12.707 12 11.6055 12.8438 11.1875 14H3C2.43359 14 2 13.5664 2 13V6C2 5.43359 2.43359 5 3 5ZM14 14H25C25.5664 14 26 14.4336 26 15V16H14V18H26V22C26 22.5664 25.5664 23 25 23H14C13.4336 23 13 22.5664 13 22V15C13 14.4336 13.4336 14 14 14ZM0 18V22C0 23.6445 1.35547 25 3 25H5V28L9 24L5 20V23H3C2.43359 23 2 22.5664 2 22V18H0Z"/>
</svg>
