<svg width="23" height="23" viewBox="0 0 23 23" xmlns="http://www.w3.org/2000/svg">
<path d="M9.47754 2.15625L9.36523 2.74023L8.93848 4.87402C8.25342 5.14355 7.63574 5.52258 7.07422 5.97461L4.98535 5.25586L4.42383 5.07617L4.13184 5.59277L2.69434 8.06348L2.40234 8.58008L2.8291 8.96191L4.44629 10.377C4.38733 10.7448 4.31152 11.1125 4.31152 11.5C4.31152 11.8875 4.38733 12.2552 4.44629 12.623L2.8291 14.0381L2.40234 14.4199L2.69434 14.9365L4.13184 17.4072L4.42383 17.9238L4.98535 17.7441L7.07422 17.0254C7.63574 17.4774 8.25342 17.8564 8.93848 18.126L9.36523 20.2598L9.47754 20.8438H13.5205L13.6328 20.2598L14.0596 18.126C14.7446 17.8564 15.3623 17.4774 15.9238 17.0254L18.0127 17.7441L18.5742 17.9238L18.8662 17.4072L20.3037 14.9365L20.5957 14.4199L20.1689 14.0381L18.5518 12.623C18.6107 12.2552 18.6865 11.8875 18.6865 11.5C18.6865 11.1125 18.6107 10.7448 18.5518 10.377L20.1689 8.96191L20.5957 8.58008L20.3037 8.06348L18.8662 5.59277L18.5742 5.07617L18.0127 5.25586L15.9238 5.97461C15.3623 5.52258 14.7446 5.14355 14.0596 4.87402L13.6328 2.74023L13.5205 2.15625H9.47754ZM10.6455 3.59375H12.3525L12.7119 5.45801L12.8018 5.88477L13.2061 6.01953C14.0231 6.27502 14.7643 6.7074 15.3848 7.27734L15.6992 7.56934L16.1035 7.43457L17.9229 6.80566L18.7764 8.26562L17.3389 9.5459L17.002 9.81543L17.1143 10.2422C17.2069 10.6521 17.249 11.0704 17.249 11.5C17.249 11.9296 17.2069 12.3479 17.1143 12.7578L17.0244 13.1846L17.3389 13.4541L18.7764 14.7344L17.9229 16.1943L16.1035 15.5654L15.6992 15.4307L15.3848 15.7227C14.7643 16.2926 14.0231 16.725 13.2061 16.9805L12.8018 17.1152L12.7119 17.542L12.3525 19.4062H10.6455L10.2861 17.542L10.1963 17.1152L9.79199 16.9805C8.97497 16.725 8.23376 16.2926 7.61328 15.7227L7.29883 15.4307L6.89453 15.5654L5.0752 16.1943L4.22168 14.7344L5.65918 13.4541L5.99609 13.1846L5.88379 12.7578C5.79114 12.3479 5.74902 11.9296 5.74902 11.5C5.74902 11.0704 5.79114 10.6521 5.88379 10.2422L5.99609 9.81543L5.65918 9.5459L4.22168 8.26562L5.0752 6.80566L6.89453 7.43457L7.29883 7.56934L7.61328 7.27734C8.23376 6.7074 8.97497 6.27502 9.79199 6.01953L10.1963 5.88477L10.2861 5.45801L10.6455 3.59375ZM11.499 7.90625C9.52246 7.90625 7.90527 9.52344 7.90527 11.5C7.90527 13.4766 9.52246 15.0938 11.499 15.0938C13.4756 15.0938 15.0928 13.4766 15.0928 11.5C15.0928 9.52344 13.4756 7.90625 11.499 7.90625ZM11.499 9.34375C12.6979 9.34375 13.6553 10.3011 13.6553 11.5C13.6553 12.6989 12.6979 13.6562 11.499 13.6562C10.3002 13.6562 9.34277 12.6989 9.34277 11.5C9.34277 10.3011 10.3002 9.34375 11.499 9.34375Z"/>
</svg>
