<svg width="20" height="20" viewBox="0 0 20 20" xmlns="http://www.w3.org/2000/svg">
<path d="M9.375 5.625C8.56689 5.625 7.87842 6.15234 7.61719 6.875H2.5V8.125H7.61719C7.87842 8.84766 8.56689 9.375 9.375 9.375C10.1831 9.375 10.8716 8.84766 11.1328 8.125H17.5V6.875H11.1328C10.8716 6.15234 10.1831 5.625 9.375 5.625ZM9.375 6.875C9.72656 6.875 10 7.14844 10 7.5C10 7.85156 9.72656 8.125 9.375 8.125C9.02344 8.125 8.75 7.85156 8.75 7.5C8.75 7.14844 9.02344 6.875 9.375 6.875ZM13.75 10.625C12.9419 10.625 12.2534 11.1523 11.9922 11.875H2.5V13.125H11.9922C12.2534 13.8477 12.9419 14.375 13.75 14.375C14.5581 14.375 15.2466 13.8477 15.5078 13.125H17.5V11.875H15.5078C15.2466 11.1523 14.5581 10.625 13.75 10.625ZM13.75 11.875C14.1016 11.875 14.375 12.1484 14.375 12.5C14.375 12.8516 14.1016 13.125 13.75 13.125C13.3984 13.125 13.125 12.8516 13.125 12.5C13.125 12.1484 13.3984 11.875 13.75 11.875Z"/>
</svg>
