<svg width="32" height="32" viewBox="0 0 32 32" xmlns="http://www.w3.org/2000/svg">
<path d="M16 4C11.1914 4 8.32029 4.57422 6.50779 5.28125C5.60545 5.63281 4.96482 6.01953 4.5117 6.36719C4.05857 6.71484 3.75779 7.03906 3.71092 7.08203H3.70701C3.29685 7.44141 3.16013 7.87891 3.08201 8.26562C3.00388 8.65625 2.99217 9.03516 3.00388 9.40625C3.02732 10.1484 3.14842 10.8516 3.21873 11.2227C3.43748 12.3711 4.37107 13.1523 5.43748 12.9805C5.66404 12.9414 5.87888 12.8867 6.24217 12.7969C6.60935 12.7031 7.06638 12.5898 7.52342 12.4727C8.43748 12.2422 9.41013 11.9961 9.59763 11.9531C10.4765 11.7578 10.8945 11.0703 11.125 10.375V10.3711C11.1094 10.4258 11.289 9.97266 11.5039 9.49219C11.7226 9.00781 12 8.40234 12.2734 7.8125C12.6562 6.98047 12.8398 6.58984 13.0273 6.1875C13.9961 6.12109 14.7578 6 16 6C17.2422 6 18.0039 6.12109 18.9765 6.19141C19.164 6.59375 19.3437 6.98047 19.7265 7.8125C20 8.40234 20.2734 9.00781 20.4922 9.49219C20.7109 9.97656 20.8945 10.4375 20.875 10.3789V10.375C21.1054 11.0625 21.5156 11.7695 22.4219 11.957C22.5625 11.9883 23.5429 12.2383 24.4531 12.4688C24.9101 12.5859 25.3633 12.7031 25.7344 12.793C26.1094 12.8828 26.3281 12.9453 26.5742 12.9844H26.5781C27.6367 13.1406 28.5586 12.3828 28.7812 11.2227C28.8515 10.8516 28.9726 10.1484 28.9961 9.40625C29.0078 9.03906 28.9961 8.65625 28.9179 8.26562C28.8398 7.87891 28.6992 7.44141 28.289 7.08203C28.2383 7.03906 27.9375 6.71484 27.4844 6.36719C27.0351 6.01953 26.3945 5.63281 25.4883 5.28125C23.6758 4.57812 20.8047 4 16 4ZM10.75 6.33594C10.6133 6.63281 10.6054 6.64844 10.4531 6.97656C10.1836 7.57031 9.90232 8.17578 9.67967 8.67188C9.46092 9.16797 9.3242 9.44531 9.22654 9.74219V9.75H9.22263C9.1367 10.0078 8.9531 10.0508 9.15623 10.0039C8.83201 10.0781 7.94529 10.3047 7.03123 10.5352C6.5781 10.6523 6.12498 10.7656 5.7656 10.8516C5.48045 10.9219 5.31638 10.957 5.24217 10.9766C5.21873 10.957 5.1992 10.918 5.18748 10.8477C5.12498 10.5195 5.01951 9.89453 4.99998 9.34375C4.99217 9.07031 5.0117 8.81641 5.04295 8.66406C5.05857 8.58594 5.0781 8.54688 5.08592 8.53516C5.30467 8.33203 5.44138 8.17188 5.72654 7.95312C6.03513 7.71875 6.49217 7.43359 7.23435 7.14453C8.01951 6.83984 9.19529 6.55469 10.75 6.33594ZM21.25 6.33594C22.8008 6.55469 23.9765 6.83984 24.7656 7.14844C25.5078 7.43359 25.9648 7.71875 26.2734 7.95703C26.5586 8.17578 26.6953 8.33203 26.9179 8.53516C26.9219 8.54688 26.9453 8.58984 26.957 8.66406C26.9883 8.82031 27.0078 9.07422 27 9.34766C26.9804 9.89453 26.875 10.5234 26.8125 10.8477C26.7969 10.9258 26.7695 10.957 26.7461 10.9727C26.664 10.957 26.5039 10.9219 26.2148 10.8516C25.8515 10.7617 25.4023 10.6484 24.9492 10.5312C24.0469 10.3008 23.2031 10.0781 22.8398 10C23.0273 10.043 22.8594 10.0039 22.7773 9.75V9.74609L22.7734 9.74219C22.6758 9.44531 22.539 9.16797 22.3164 8.67188C22.0976 8.17578 21.8164 7.57031 21.5429 6.97656C21.3906 6.64844 21.3867 6.63281 21.25 6.33594ZM12 11V13.543C11.6523 13.7969 10.4023 14.6836 8.79295 16.293C6.97654 18.1094 4.99998 20.418 4.99998 23V28H9.41404L10.414 27H21.5859L22.5859 28H27V23C27 20.418 25.0234 18.1094 23.207 16.293C21.5976 14.6836 20.3476 13.7969 20 13.543V11H17V12H15V11H12ZM5.11717 11.0039C5.12107 11.0039 5.11717 11.0039 5.12107 11.0039C5.12107 11.0039 5.11326 11.0078 5.11326 11.0039H5.11717ZM14 14H18V14.5156L18.4179 14.8125C18.4179 14.8125 20.1094 16.0234 21.7929 17.707C23.4765 19.3906 25 21.582 25 23V26H23.414L22.414 25H9.58592L8.58592 26H6.99998V23C6.99998 21.582 8.52342 19.3906 10.207 17.707C11.8906 16.0234 13.582 14.8125 13.582 14.8125L14 14.5156V14ZM12 18V20H14V18H12ZM15 18V20H17V18H15ZM18 18V20H20V18H18ZM12 21V23H14V21H12ZM15 21V23H17V21H15ZM18 21V23H20V21H18Z"/>
</svg>
