<svg width="757" height="308" viewBox="0 0 757 308" fill="none" xmlns="http://www.w3.org/2000/svg">
<path d="M148.652 301.465H192.744V242.607H233.555V204.053H192.744V5.53711H126.299C59.8535 101.924 26.0156 155.039 0.585938 202.617V242.607H148.652V301.465ZM43.2422 203.438C66.8262 161.396 96.9727 114.639 148.242 41.2207H149.062V204.668H43.2422V203.438Z" fill="#2E2E2E"/>
<path d="M376.699 307.002C447.861 307.002 489.697 247.324 489.697 152.988C489.697 59.2676 447.451 0 376.699 0C305.947 0 263.291 59.4727 263.291 153.193C263.291 247.529 305.332 307.002 376.699 307.002ZM376.699 268.447C333.838 268.447 309.844 224.766 309.844 153.193C309.844 82.6465 334.453 38.5547 376.699 38.5547C418.945 38.5547 443.35 82.4414 443.35 153.193C443.35 224.971 419.355 268.447 376.699 268.447Z" fill="#2E2E2E"/>
<path d="M671.191 301.465H715.283V242.607H756.094V204.053H715.283V5.53711H648.838C582.393 101.924 548.555 155.039 523.125 202.617V242.607H671.191V301.465ZM565.781 203.438C589.365 161.396 619.512 114.639 670.781 41.2207H671.602V204.668H565.781V203.438Z" fill="#2E2E2E"/>
</svg>
