<svg width="32" height="32" viewBox="0 0 32 32" fill="none" xmlns="http://www.w3.org/2000/svg">
<g clip-path="url(#clip0)">
<path d="M25.1921 6.80774C20.1236 1.73922 11.8759 1.73922 6.80737 6.80774C1.73885 11.8763 1.73885 20.124 6.80737 25.1925C11.8759 30.261 20.1236 30.261 25.1921 25.1925C30.2607 20.124 30.2607 11.8763 25.1921 6.80774ZM23.7779 8.22196C28.0813 12.5254 28.0813 19.4749 23.7779 23.7783C19.4745 28.0817 12.525 28.0817 8.22158 23.7783C3.91817 19.4749 3.91817 12.5254 8.22158 8.22196C12.525 3.91855 19.4745 3.91855 23.7779 8.22196ZM18.8282 11.7575L15.9998 14.5859L13.1713 11.7575L11.7571 13.1717L14.5855 16.0001L11.7571 18.8286L13.1713 20.2428L15.9998 17.4143L18.8282 20.2428L20.2424 18.8286L17.414 16.0001L20.2424 13.1717L18.8282 11.7575Z" fill="#C1C1C1"/>
</g>
<defs>
<clipPath id="clip0">
<rect width="32" height="32" fill="white"/>
</clipPath>
</defs>
</svg>
