<svg width="22" height="22" viewBox="0 0 22 22" xmlns="http://www.w3.org/2000/svg">
<path d="M3.4375 3.4375V9.625C3.4375 12.042 5.23682 14.0374 7.5625 14.373V17.1875H4.8125V18.5625H11.6875V17.1875H8.9375V14.373C11.2632 14.0374 13.0625 12.042 13.0625 9.625V3.4375H3.4375ZM14.4375 3.4375V8.25H15.125C15.5037 8.25 15.8125 7.94116 15.8125 7.5625V3.4375H14.4375ZM17.1875 3.4375V8.25C17.1875 9.39673 16.2717 10.3125 15.125 10.3125H14.4375V18.5625H15.8125V11.5371C17.3647 11.2068 18.5625 9.89624 18.5625 8.25V3.4375H17.1875ZM4.8125 4.8125H11.6875V9.625C11.6875 11.5317 10.1567 13.0625 8.25 13.0625C6.34326 13.0625 4.8125 11.5317 4.8125 9.625V4.8125Z"/>
</svg>
