<svg width="32" height="32" viewBox="0 0 32 32" xmlns="http://www.w3.org/2000/svg">
<path d="M4.5602 1.27979L18.4202 15.0398L22.2202 11.2398L5.4202 1.53979C5.1402 1.37729 4.8402 1.28729 4.5602 1.27979ZM3.4002 1.91979C3.2752 2.14229 3.2002 2.40479 3.2002 2.69979V29.4398C3.2002 29.6548 3.2452 29.8473 3.3202 30.0198L17.5002 15.9398L3.4002 1.91979ZM23.3802 11.8998L19.3202 15.9398L23.3802 19.9598L28.3402 17.1198C29.0452 16.7123 29.1452 16.1948 29.1402 15.9198C29.1327 15.4648 28.8452 15.0398 28.3602 14.7798C27.9377 14.5523 24.8002 12.7248 23.3802 11.8998ZM18.4202 16.8398L4.4402 30.6998C4.6727 30.6873 4.9252 30.6373 5.1602 30.4998C5.7077 30.1823 16.7802 23.7798 16.7802 23.7798L22.2402 20.6398L18.4202 16.8398Z"/>
</svg>
