<svg viewBox="0 0 20 20" xmlns="http://www.w3.org/2000/svg">
<path d="M3.75 8.75C3.05908 8.75 2.5 9.30908 2.5 10C2.5 10.6909 3.05908 11.25 3.75 11.25C4.44092 11.25 5 10.6909 5 10C5 9.30908 4.44092 8.75 3.75 8.75ZM10 8.75C9.30908 8.75 8.75 9.30908 8.75 10C8.75 10.6909 9.30908 11.25 10 11.25C10.6909 11.25 11.25 10.6909 11.25 10C11.25 9.30908 10.6909 8.75 10 8.75ZM16.25 8.75C15.5591 8.75 15 9.30908 15 10C15 10.6909 15.5591 11.25 16.25 11.25C16.9409 11.25 17.5 10.6909 17.5 10C17.5 9.30908 16.9409 8.75 16.25 8.75Z"/>
</svg>
