<svg width="24" height="24" viewBox="0 0 24 24" xmlns="http://www.w3.org/2000/svg">
<path d="M18.9688 -4.16607e-05C18.8164 0.00386434 18.6562 0.0233963 18.5 0.0624583L2.25 4.34371C0.9375 4.68746 0 5.89058 0 7.24996V21C0 22.6445 1.35547 24 3 24H21C22.6445 24 24 22.6445 24 21V7.99996C24 6.35543 22.6445 4.99996 21 4.99996H7.625L19 1.99996V3.99996H21V1.99996C21 0.874958 20.043 -0.0156667 18.9688 -4.16607e-05ZM3 6.99996H21C21.5664 6.99996 22 7.43355 22 7.99996V21C22 21.5664 21.5664 22 21 22H3C2.43359 22 2 21.5664 2 21V7.99996C2 7.43355 2.43359 6.99996 3 6.99996ZM18.5 13C17.6719 13 17 13.6718 17 14.5C17 15.3281 17.6719 16 18.5 16C19.3281 16 20 15.3281 20 14.5C20 13.6718 19.3281 13 18.5 13Z"/>
</svg>
