<svg width="18" height="18" viewBox="0 0 18 18"  xmlns="http://www.w3.org/2000/svg">
<path d="M9 2.25C5.27783 2.25 2.25 5.27783 2.25 9C2.25 10.7271 2.90039 12.3047 3.97266 13.5H2.8125V14.625H6.1875V11.25H5.0625V13.0078C4.02539 11.9883 3.375 10.571 3.375 9C3.375 5.88647 5.88647 3.375 9 3.375V2.25ZM11.8125 3.375V6.75H12.9375V4.99219C13.9768 6.00952 14.625 7.42456 14.625 9C14.625 12.1135 12.1135 14.625 9 14.625V15.75C12.7222 15.75 15.75 12.7222 15.75 9C15.75 7.26855 15.0864 5.69312 14.0098 4.5H15.1875V3.375H11.8125Z"/>
</svg>
