<svg width="20" height="14" viewBox="0 0 20 14" xmlns="http://www.w3.org/2000/svg">
<path d="M9.99966 0.8125C5.61148 0.8125 1.77115 2.23047 1.77115 2.23047L1.36295 2.38086L1.31998 2.78906L0.396148 9.83594C0.146393 11.7856 1.54019 13.6038 3.4899 13.8535C5.30533 14.0872 6.93277 12.8625 7.35709 11.125H12.6422C13.0692 12.8625 14.694 14.0872 16.5094 13.8535C18.4591 13.6038 19.8529 11.7856 19.6032 9.83594L18.6794 2.78906L18.6364 2.38086L18.2282 2.23047C18.2282 2.23047 14.3878 0.8125 9.99966 0.8125ZM9.99966 2.1875C13.7702 2.1875 16.88 3.23486 17.3903 3.41211L18.2282 10.0293C18.3839 11.2405 17.5487 12.3228 16.3376 12.4785C15.1264 12.6343 14.0226 11.7991 13.8669 10.5879L13.8454 10.3516L13.7594 9.75H6.2399L6.15396 10.3516L6.13248 10.5879C5.97672 11.7991 4.87295 12.6343 3.66177 12.4785C2.45059 12.3228 1.61539 11.2405 1.77115 10.0293L2.60904 3.41211C3.11929 3.23486 6.22916 2.1875 9.99966 2.1875ZM5.18716 4.25V5.625H3.81216V7H5.18716V8.375H6.56216V7H7.93716V5.625H6.56216V4.25H5.18716ZM14.1247 4.25C13.746 4.25 13.4372 4.55884 13.4372 4.9375C13.4372 5.31616 13.746 5.625 14.1247 5.625C14.5033 5.625 14.8122 5.31616 14.8122 4.9375C14.8122 4.55884 14.5033 4.25 14.1247 4.25ZM12.7497 5.625C12.371 5.625 12.0622 5.93384 12.0622 6.3125C12.0622 6.69116 12.371 7 12.7497 7C13.1283 7 13.4372 6.69116 13.4372 6.3125C13.4372 5.93384 13.1283 5.625 12.7497 5.625ZM15.4997 5.625C15.121 5.625 14.8122 5.93384 14.8122 6.3125C14.8122 6.69116 15.121 7 15.4997 7C15.8783 7 16.1872 6.69116 16.1872 6.3125C16.1872 5.93384 15.8783 5.625 15.4997 5.625ZM14.1247 7C13.746 7 13.4372 7.30884 13.4372 7.6875C13.4372 8.06616 13.746 8.375 14.1247 8.375C14.5033 8.375 14.8122 8.06616 14.8122 7.6875C14.8122 7.30884 14.5033 7 14.1247 7Z"/>
</svg>
