<svg width="32" height="32" viewBox="0 0 32 32" fill="none" xmlns="http://www.w3.org/2000/svg">
<g clip-path="url(#clip0)">
<path d="M25.1924 6.80762C20.1239 1.7391 11.8761 1.7391 6.80761 6.80762C1.73909 11.8761 1.73909 20.1239 6.80761 25.1924C11.8761 30.2609 20.1239 30.2609 25.1924 25.1924C30.2609 20.1239 30.2609 11.8761 25.1924 6.80762ZM23.7782 8.22184C28.0816 12.5252 28.0816 19.4748 23.7782 23.7782C19.4748 28.0816 12.5252 28.0816 8.22183 23.7782C3.91842 19.4748 3.91842 12.5252 8.22183 8.22184C12.5252 3.91843 19.4748 3.91843 23.7782 8.22184ZM18.8284 11.7574L16 14.5858L13.1716 11.7574L11.7574 13.1716L14.5858 16L11.7574 18.8284L13.1716 20.2427L16 17.4142L18.8284 20.2427L20.2426 18.8284L17.4142 16L20.2426 13.1716L18.8284 11.7574Z" fill="white"/>
</g>
<defs>
<clipPath id="clip0">
<rect width="32" height="32" fill="white"/>
</clipPath>
</defs>
</svg>
